# xmcd CD database file
#
# Track frame offsets:
#	150
#	20451
#	52466
#
# Disc length: 1082 seconds
#
# Revision: 0
# Processed by: cddbd v1.5.2PL0 Copyright (c) Steve Scherf et al.
# Submitted via: CDex 1.51
#
DISCID=25043803
DTITLE=Loreena McKennitt - Live at the Alhambra - bonus disc
DYEAR=2006
DGENRE=New Age
TTITLE0=Penelope's song - live
TTITLE1=caravanserai - live
TTITLE2=Never-ending road (amhrán duit) - live
EXTD=YEAR: 2006
EXTT0=
EXTT1=
EXTT2=
PLAYORDER=
